<?xml version="1.0" encoding="UTF-8" standalone="no"?>
<!-- Created with Inkscape (http://www.inkscape.org/) -->

<svg
   xmlns:dc="http://purl.org/dc/elements/1.1/"
   xmlns:cc="http://creativecommons.org/ns#"
   xmlns:rdf="http://www.w3.org/1999/02/22-rdf-syntax-ns#"
   xmlns:svg="http://www.w3.org/2000/svg"
   xmlns="http://www.w3.org/2000/svg"
   xmlns:sodipodi="http://sodipodi.sourceforge.net/DTD/sodipodi-0.dtd"
   xmlns:inkscape="http://www.inkscape.org/namespaces/inkscape"
   version="1.1"
   width="620"
   height="88"
   id="svg2"
   inkscape:version="0.48.4 r9939"
   sodipodi:docname="KDE.svg">
  <metadata
     id="metadata74">
    <rdf:RDF>
      <cc:Work
         rdf:about="">
        <dc:format>image/svg+xml</dc:format>
        <dc:type
           rdf:resource="http://purl.org/dc/dcmitype/StillImage" />
      </cc:Work>
    </rdf:RDF>
  </metadata>
  <defs
     id="defs72" />
  <sodipodi:namedview
     pagecolor="#ffffff"
     bordercolor="#666666"
     borderopacity="1"
     objecttolerance="10"
     gridtolerance="10"
     guidetolerance="10"
     inkscape:pageopacity="0"
     inkscape:pageshadow="2"
     inkscape:window-width="1920"
     inkscape:window-height="1031"
     id="namedview70"
     showgrid="false"
     inkscape:zoom="1.5510729"
     inkscape:cx="258.6157"
     inkscape:cy="-19.4914"
     inkscape:window-x="0"
     inkscape:window-y="25"
     inkscape:window-maximized="1"
     inkscape:current-layer="text118" />
  <g
     style="fill:none;stroke:#008000;stroke-width:8;stroke-dasharray:8,8;stroke-miterlimit:4;stroke-dashoffset:0"
     id="g16"
     transform="matrix(0.1375,0,0,-0.1375,-125,595)">
    <path
       inkscape:connector-curvature="0"
       d="m 2055,3910.83 32.5,-20 33.33,-18.33 33.34,-16.67 32.5,-13.33 33.33,-11.67 33.33,-9.16 32.5,-7.5 33.34,-5.84 33.33,-4.16 33.33,-3.34 32.5,-2.5 33.34,-1.66 33.33,-0.84 32.5,-0.83 33.33,-0.83 165.84,0 32.5,-0.84 2580.83,0"
       id="path22"
       style="stroke:#008000;stroke-width:8;stroke-miterlimit:4;stroke-dasharray:8,8;stroke-dashoffset:0" />
    <path
       inkscape:connector-curvature="0"
       d="m 930,3794.17 33.332,0 32.5,0.83 33.338,0.83 33.33,0.84 32.5,1.66 33.33,2.5 33.34,3.34 32.5,4.16 33.33,5.84 33.33,7.5 32.5,9.16 33.34,11.67 33.33,13.33 33.33,16.67 32.5,18.33 33.34,20 33.33,21.67 32.5,22.5 33.33,22.5 33.34,21.67 32.5,19.16 33.33,16.67 33.33,12.5 33.34,7.5 32.5,2.5 33.33,-2.5 33.33,-7.5 32.5,-12.5 33.34,-16.67 33.33,-19.16 32.5,-21.67 33.33,-22.5 33.34,-22.5 33.33,-21.67"
       id="path24"
       style="stroke:#008000;stroke-width:8;stroke-miterlimit:4;stroke-dasharray:8,8;stroke-dashoffset:0" />
    <path
       inkscape:connector-curvature="0"
       d="m 2055,4055 32.5,-7.5 33.33,-12.5 33.34,-16.67 32.5,-19.16 33.33,-21.67 33.33,-22.5 32.5,-22.5 33.34,-21.67 33.33,-20 33.33,-18.33 32.5,-16.67 33.34,-13.33 33.33,-11.67 32.5,-9.16 33.33,-7.5 33.34,-5.84 32.5,-4.16 33.33,-3.34 33.33,-2.5 33.34,-1.66 32.5,-0.84 33.33,-0.83 33.33,-0.83 165,0 33.34,-0.84 2315.83,0"
       id="path26"
       style="stroke:#008000;stroke-width:8;stroke-miterlimit:4;stroke-dasharray:8,8;stroke-dashoffset:0" />
    <path
       inkscape:connector-curvature="0"
       d="m 930,3793.33 99.17,0 33.33,0.84 165,0 33.33,0.83 32.5,0.83 33.34,0.84 33.33,1.66 33.33,2.5 32.5,3.34 33.34,4.16 33.33,5.84 32.5,7.5 33.33,9.16 33.34,11.67 32.5,13.33 33.33,16.67 33.33,18.33 33.34,20 32.5,21.67 33.33,22.5 33.33,22.5 32.5,21.67 33.34,19.16 33.33,16.67 32.5,12.5 33.33,7.5 33.34,2.5 33.33,-2.5"
       id="path28"
       style="stroke:#008000;stroke-width:8;stroke-miterlimit:4;stroke-dasharray:8,8;stroke-dashoffset:0" />
    <path
       inkscape:connector-curvature="0"
       d="m 2055,3932.5 32.5,22.5 33.33,22.5 33.34,21.67 32.5,19.16 33.33,16.67 33.33,12.5 32.5,7.5 33.34,2.5 33.33,-2.5 33.33,-7.5 32.5,-12.5 33.34,-16.67 33.33,-19.16 32.5,-21.67 33.33,-22.5 33.34,-22.5 32.5,-21.67 33.33,-20 33.33,-18.33 33.34,-16.67 32.5,-13.33 33.33,-11.67 33.33,-9.16 32.5,-7.5 33.34,-5.84 33.33,-4.16 32.5,-3.34 33.33,-2.5 33.34,-1.66 33.33,-0.84 32.5,-0.83 33.33,-0.83 165,0 33.34,-0.84 2018.33,0"
       id="path30"
       style="stroke:#008000;stroke-width:8;stroke-miterlimit:4;stroke-dasharray:8,8;stroke-dashoffset:0" />
    <path
       inkscape:connector-curvature="0"
       d="m 930,3793.33 396.67,0 33.33,0.84 165,0 33.33,0.83 33.34,0.83 32.5,0.84 33.33,1.66 33.33,2.5 33.34,3.34 32.5,4.16 33.33,5.84 33.33,7.5 32.5,9.16 33.34,11.67 33.33,13.33 32.5,16.67 33.33,18.33 33.34,20 33.33,21.67"
       id="path32"
       style="stroke:#008000;stroke-width:8;stroke-miterlimit:4;stroke-dasharray:8,8;stroke-dashoffset:0" />
    <path
       inkscape:connector-curvature="0"
       d="m 2055,3793.33 32.5,0 33.33,0.84 165,0 33.34,0.83 33.33,0.83 33.33,0.84 32.5,1.66 33.34,2.5 33.33,3.34 32.5,4.16 33.33,5.84 33.34,7.5 32.5,9.16 33.33,11.67 33.33,13.33 33.34,16.67 32.5,18.33 33.33,20 33.33,21.67 32.5,22.5 33.34,22.5 33.33,21.67 32.5,19.16 33.33,16.67 33.34,12.5 33.33,7.5 32.5,2.5 33.33,-2.5 33.34,-7.5 32.5,-12.5 33.33,-16.67 33.33,-19.16 32.5,-21.67 33.34,-22.5 33.33,-22.5 33.33,-21.67 32.5,-20 33.34,-18.33 33.33,-16.67 32.5,-13.33 33.33,-11.67 33.34,-9.16 32.5,-7.5 33.33,-5.84 33.33,-4.16 33.34,-3.34 32.5,-2.5 33.33,-1.66 33.33,-0.84 32.5,-0.83 33.34,-0.83 165.83,0 32.5,-0.84 1257.5,0"
       id="path34"
       style="stroke:#008000;stroke-width:8;stroke-miterlimit:4;stroke-dasharray:8,8;stroke-dashoffset:0" />
    <path
       inkscape:connector-curvature="0"
       d="m 930,3793.33 1125,0"
       id="path36"
       style="stroke:#008000;stroke-width:8;stroke-miterlimit:4;stroke-dasharray:8,8;stroke-dashoffset:0" />
    <path
       inkscape:connector-curvature="0"
       d="m 2055,3793.33 1091.67,0 32.5,0.84 165.83,0 33.33,0.83 32.5,0.83 33.34,0.84 33.33,1.66 32.5,2.5 33.33,3.34 33.34,4.16 32.5,5.84 33.33,7.5 33.33,9.16 33.34,11.67 32.5,13.33 33.33,16.67 33.33,18.33 32.5,20 33.34,21.67 33.33,22.5 32.5,22.5 33.33,21.67 33.34,19.16 33.33,16.67 32.5,12.5 33.33,7.5 33.34,2.5 32.5,-2.5 33.33,-7.5 33.33,-12.5 32.5,-16.67 33.34,-19.16 33.33,-21.67 33.33,-22.5 32.5,-22.5 33.34,-21.67 33.33,-20 32.5,-18.33 33.33,-16.67 33.34,-13.33 32.5,-11.67 33.33,-9.16 33.33,-7.5 33.34,-5.84 32.5,-4.16 33.33,-3.34 33.33,-2.5 32.5,-1.66 33.34,-0.84 33.33,-0.83 32.5,-0.83 165.83,0 33.34,-0.84 198.33,0"
       id="path38"
       style="stroke:#008000;stroke-width:8;stroke-miterlimit:4;stroke-dasharray:8,8;stroke-dashoffset:0" />
    <path
       inkscape:connector-curvature="0"
       d="m 930,3793.33 1125,0"
       id="path40"
       style="stroke:#008000;stroke-width:8;stroke-miterlimit:4;stroke-dasharray:8,8;stroke-dashoffset:0" />
    <path
       inkscape:connector-curvature="0"
       d="m 2055,3793.33 1455,0 33.33,0.84 165.84,0 32.5,0.83 33.33,0.83 33.33,0.84 32.5,1.66 33.34,2.5 33.33,3.34 32.5,4.16 33.33,5.84 33.34,7.5 33.33,9.16 32.5,11.67 33.33,13.33 33.34,16.67 32.5,18.33 33.33,20 33.33,21.67 32.5,22.5 33.34,22.5 33.33,21.67 33.33,19.16 32.5,16.67 33.34,12.5 33.33,7.5 32.5,2.5 33.33,-2.5 33.34,-7.5 32.5,-12.5 33.33,-16.67 33.33,-19.16 33.34,-21.67 32.5,-22.5 33.33,-22.5 33.33,-21.67 32.5,-20 33.34,-18.33 33.33,-16.67 32.5,-13.33 33.33,-11.67 33.34,-9.16 33.33,-7.5 32.5,-5.84 33.33,-4.16 33.34,-3.34 32.5,-2.5 33.33,-1.66 33.33,-0.84 32.5,-0.83 33.34,-0.83 33.33,0"
       id="path42"
       style="stroke:#008000;stroke-width:8;stroke-miterlimit:4;stroke-dasharray:8,8;stroke-dashoffset:0" />
    <path
       inkscape:connector-curvature="0"
       d="m 930,3793.33 1125,0"
       id="path44"
       style="stroke:#008000;stroke-width:8;stroke-miterlimit:4;stroke-dasharray:8,8;stroke-dashoffset:0" />
  </g>
  <g
     style="fill:none;stroke:#800000;stroke-width:15"
     id="g18"
     transform="matrix(0.1375,0,0,-0.1375,-125,595)">
    <path
       inkscape:connector-curvature="0"
       d="m 2055,4311.67 32.5,-5.84 33.33,-8.33 33.34,-10.83 32.5,-13.34 33.33,-16.66 33.33,-19.17 32.5,-21.67 33.34,-25 33.33,-26.66 33.33,-27.5 32.5,-29.17 33.34,-30 33.33,-28.33 32.5,-27.5 33.33,-25 33.34,-20.84 32.5,-16.66 33.33,-12.5 33.33,-6.67 33.34,-1.67 32.5,3.34 33.33,8.33 33.33,11.67 32.5,15 33.34,15.83 33.33,17.5 32.5,15.83 33.33,14.17 33.34,10.83 33.33,6.67 32.5,1.67 33.33,-3.34 33.34,-8.33 32.5,-12.5 33.33,-15.83 33.33,-20 32.5,-20.84 33.34,-22.5 33.33,-22.5 33.33,-20.83 32.5,-20 33.34,-16.67 33.33,-15 32.5,-11.66 33.33,-7.5 33.34,-5 32.5,-1.67 33.33,1.67 33.33,5 33.34,8.33 32.5,12.5 33.33,15 33.33,18.33 32.5,21.67 33.34,23.33 33.33,25.84 32.5,25.83 33.33,27.5 33.34,26.67 33.33,25.83 32.5,23.33 33.33,21.67 33.34,19.17 32.5,15.83 33.33,12.5 33.33,9.17 32.5,5.83 33.34,3.33 33.33,0 33.33,-3.33 32.5,-5.83 33.34,-9.17 33.33,-12.5 32.5,-15.83 33.33,-19.17 33.34,-21.67 32.5,-23.33 33.33,-25.83 33.33,-26.67 33.34,-27.5 32.5,-26.67 33.33,-25.83 33.33,-24.17 32.5,-21.66 33.34,-20 33.33,-16.67 32.5,-14.17 33.33,-11.66 33.34,-10 33.33,-7.5 32.5,-5.84 33.33,-4.16 33.34,-3.34 32.5,-2.5 33.33,-1.66 33.33,-0.84 32.5,-0.83 33.34,-0.83 33.33,0"
       id="path46"
       style="stroke:#800000" />
    <path
       inkscape:connector-curvature="0"
       d="m 930,3794.17 33.332,0 32.5,0.83 33.338,0.83 33.33,0.84 32.5,1.66 33.33,2.5 33.34,3.34 32.5,5 33.33,5.83 33.33,7.5 32.5,10.83 33.34,12.5 33.33,15 33.33,19.17 32.5,21.67 33.34,24.16 33.33,28.34 32.5,30 33.33,32.5 33.34,33.33 32.5,34.17 33.33,34.16 33.33,33.34 33.34,30.83 32.5,29.17 33.33,25.83 33.33,21.67 32.5,18.33 33.34,15 33.33,10.83 32.5,6.67 33.33,4.17 33.34,0 33.33,-2.5"
       id="path48"
       style="stroke:#800000" />
  </g>
  <g
     id="g20"
     transform="matrix(0.1375,0,0,-0.1375,-125,595)">
    <path
       inkscape:connector-curvature="0"
       style="fill:#000000;stroke:#000000;stroke-width:5"
       id="path52"
       d="m 5395.83,3793.33 -91.66,-37.5 0,75.84 91.66,-38.34 0,0" />
    <path
       inkscape:connector-curvature="0"
       style="fill:none;stroke:#000000;stroke-width:8"
       id="path54"
       d="m 930,3793.33 4416.67,0" />
  </g>
  <g
     style="fill:#000000"
     transform="matrix(1.375,0,0,1.375,-125,595)"
     id="g64">
    <g
       id="text118"
       transform="translate(222.083,-369.25)">
      <flowRoot
         xml:space="preserve"
         id="flowRoot3884"
         style="font-size:12px;font-style:normal;font-variant:normal;font-weight:normal;font-stretch:normal;text-align:start;line-height:125%;letter-spacing:0px;word-spacing:0px;writing-mode:lr-tb;text-anchor:start;fill:#000000;fill-opacity:1;stroke:none;font-family:Ubuntu;-inkscape-font-specification:Ubuntu"
         transform="matrix(0.72727273,0,0,0.72727273,-134.4561,-68.587099)"><flowRegion
           id="flowRegion3886"><rect
             id="rect3888"
             width="312.04205"
             height="36.748756"
             x="9.0260105"
             y="97.026009" /></flowRegion><flowPara
           id="flowPara3890"
           style="font-size:10px;font-style:italic;-inkscape-font-specification:Ubuntu Italic">Source : Wikimedia Commons</flowPara></flowRoot>      <rect
         style="color:#000000;fill:none;stroke:#4d4d4d;stroke-width:0.80000001;stroke-linecap:round;stroke-linejoin:miter;stroke-miterlimit:4;stroke-opacity:1;stroke-dasharray:none;stroke-dashoffset:0;marker:none;visibility:visible;display:inline;overflow:visible;enable-background:accumulate"
         id="rect3892"
         width="462.78818"
         height="81.585754"
         x="-137.73828"
         y="-69.340935"
         ry="8.6178999" />
    </g>
  </g>
  <g
     id="g72"
     transform="matrix(0.1375,0,0,-0.1375,-125,595)"
     style="fill:#800000;stroke:#800000">
    <path
       inkscape:connector-curvature="0"
       d="m 1770,3793.33 0,3.34 -0.83,0.83 0,1.67 -0.84,0.83 -0.83,0.83 -0.83,1.67 -0.84,0.83 -0.83,0.84 -0.83,0.83 -1.67,0.83 -0.83,0 -0.84,0.84 -6.66,0 -1.67,-0.84 -0.83,0 -1.67,-0.83 -0.83,-0.83 -0.84,-0.84 -0.83,-0.83 -0.83,-0.83 -0.84,-0.84 -0.83,-1.66 -0.83,-0.84 0,-2.5 -0.84,-1.66 0,-0.84 0.84,-1.66 0,-2.5 0.83,-1.67 0.83,-0.83 0.84,-0.84 0.83,-0.83 0.83,-1.67 0.84,-0.83 1.66,0 0.84,-0.83 0.83,-0.84 8.33,0 0.84,0.84 1.66,0 0.84,0.83 0.83,0.83 1.67,0.84 0.83,0.83 0.83,1.67 0,0.83 0.84,1.67 0.83,0.83 0,2.5"
       style="fill:#800000;stroke:#800000"
       id="path78" />
    <path
       inkscape:connector-curvature="0"
       d="m 1770,3793.33 0,3.34 -0.83,0.83 0,1.67 -0.84,0.83 -0.83,0.83 -0.83,1.67 -0.84,0.83 -0.83,0.84 -0.83,0.83 -1.67,0.83 -0.83,0 -0.84,0.84 -6.66,0 -1.67,-0.84 -0.83,0 -1.67,-0.83 -0.83,-0.83 -0.84,-0.84 -0.83,-0.83 -0.83,-0.83 -0.84,-0.84 -0.83,-1.66 -0.83,-0.84 0,-2.5 -0.84,-1.66 0,-0.84 0.84,-1.66 0,-2.5 0.83,-1.67 0.83,-0.83 0.84,-0.84 0.83,-0.83 0.83,-1.67 0.84,-0.83 1.66,0 0.84,-0.83 0.83,-0.84 8.33,0 0.84,0.84 1.66,0 0.84,0.83 0.83,0.83 1.67,0.84 0.83,0.83 0.83,1.67 0,0.83 0.84,1.67 0.83,0.83 0,3.33"
       style="fill:#800000;stroke:#800000;stroke-width:5"
       id="path80" />
  </g>
  <g
     id="g98"
     transform="matrix(0.1375,0,0,-0.1375,-125,595)"
     style="fill:#800000;stroke:#800000">
    <path
       inkscape:connector-curvature="0"
       d="m 2035,3793.33 0,1.67 -0.83,1.67 0,2.5 -0.84,0.83 -0.83,0.83 -0.83,1.67 -0.84,0.83 -0.83,0.84 -1.67,0.83 -0.83,0.83 -0.83,0 -1.67,0.84 -6.67,0 -0.83,-0.84 -1.67,0 -0.83,-0.83 -0.83,-0.83 -1.67,-0.84 -0.83,-0.83 -0.84,-0.83 -0.83,-0.84 0,-1.66 -0.83,-0.84 -0.84,-1.66 0,-5 0.84,-1.67 0,-0.83 0.83,-1.67 0,-0.83 0.83,-0.84 0.84,-0.83 0.83,-1.67 1.67,-0.83 0.83,0 1.67,-0.83 0.83,-0.84 7.5,0 1.67,0.84 0.83,0 1.67,0.83 0.83,0.83 0.83,0.84 0.84,0.83 0.83,1.67 0.83,0.83 0.84,1.67 0,2.5 0.83,0.83"
       style="fill:#800000;stroke:#800000"
       id="path104" />
    <path
       inkscape:connector-curvature="0"
       d="m 2035,3793.33 0,1.67 -0.83,1.67 0,2.5 -0.84,0.83 -0.83,0.83 -0.83,1.67 -0.84,0.83 -0.83,0.84 -1.67,0.83 -0.83,0.83 -0.83,0 -1.67,0.84 -6.67,0 -0.83,-0.84 -1.67,0 -0.83,-0.83 -0.83,-0.83 -1.67,-0.84 -0.83,-0.83 -0.84,-0.83 -0.83,-0.84 0,-1.66 -0.83,-0.84 -0.84,-1.66 0,-5 0.84,-1.67 0,-0.83 0.83,-1.67 0,-0.83 0.83,-0.84 0.84,-0.83 0.83,-1.67 1.67,-0.83 0.83,0 1.67,-0.83 0.83,-0.84 7.5,0 1.67,0.84 0.83,0 1.67,0.83 0.83,0.83 0.83,0.84 0.84,0.83 0.83,1.67 0.83,0.83 0.84,1.67 0,2.5 0.83,0.83 0,0.83"
       style="fill:#800000;stroke:#800000;stroke-width:5"
       id="path106" />
  </g>
  <g
     id="g124"
     transform="matrix(0.1375,0,0,-0.1375,-125,595)"
     style="fill:#800000;stroke:#800000">
    <path
       inkscape:connector-curvature="0"
       d="m 2332.5,3793.33 0,3.34 -0.83,0.83 0,1.67 -0.84,0.83 -0.83,0.83 -0.83,1.67 -0.84,0.83 -0.83,0.84 -0.83,0.83 -1.67,0.83 -0.83,0 -1.67,0.84 -5.83,0 -1.67,-0.84 -0.83,0 -1.67,-0.83 -0.83,-0.83 -0.84,-0.84 -1.66,-0.83 -0.84,-0.83 0,-0.84 -0.83,-1.66 -0.83,-0.84 0,-1.66 -0.84,-0.84 0,-4.16 0.84,-1.67 0,-0.83 0.83,-1.67 0.83,-0.83 0.84,-0.84 0.83,-0.83 0.83,-1.67 0.84,-0.83 0.83,0 1.67,-0.83 0.83,-0.84 8.33,0 0.84,0.84 1.66,0 0.84,0.83 0.83,0.83 0.83,0.84 0.84,0.83 0.83,1.67 0.83,0.83 0.84,1.67 0,0.83 0.83,1.67 0,0.83"
       style="fill:#800000;stroke:#800000"
       id="path130" />
    <path
       inkscape:connector-curvature="0"
       d="m 2332.5,3793.33 0,3.34 -0.83,0.83 0,1.67 -0.84,0.83 -0.83,0.83 -0.83,1.67 -0.84,0.83 -0.83,0.84 -0.83,0.83 -1.67,0.83 -0.83,0 -1.67,0.84 -5.83,0 -1.67,-0.84 -0.83,0 -1.67,-0.83 -0.83,-0.83 -0.84,-0.84 -1.66,-0.83 -0.84,-0.83 0,-0.84 -0.83,-1.66 -0.83,-0.84 0,-1.66 -0.84,-0.84 0,-4.16 0.84,-1.67 0,-0.83 0.83,-1.67 0.83,-0.83 0.84,-0.84 0.83,-0.83 0.83,-1.67 0.84,-0.83 0.83,0 1.67,-0.83 0.83,-0.84 8.33,0 0.84,0.84 1.66,0 0.84,0.83 0.83,0.83 0.83,0.84 0.84,0.83 0.83,1.67 0.83,0.83 0.84,1.67 0,0.83 0.83,1.67 0,1.66"
       style="fill:#800000;stroke:#800000;stroke-width:5"
       id="path132" />
  </g>
  <g
     id="g150"
     transform="matrix(0.1375,0,0,-0.1375,-125,595)"
     style="fill:#800000;stroke:#800000">
    <path
       inkscape:connector-curvature="0"
       d="m 3093.33,3793.33 0,3.34 -0.83,0.83 0,1.67 -0.83,0.83 -0.84,0.83 -0.83,1.67 -0.83,0.83 -0.84,0.84 -0.83,0.83 -1.67,0.83 -0.83,0 -1.67,0.84 -5.83,0 -1.67,-0.84 -0.83,0 -1.67,-0.83 -0.83,-0.83 -0.83,-0.84 -0.84,-0.83 -0.83,-0.83 -0.83,-0.84 -0.84,-1.66 -0.83,-0.84 0,-2.5 -0.83,-1.66 0,-0.84 0.83,-1.66 0,-2.5 0.83,-1.67 0.84,-0.83 0.83,-0.84 0.83,-0.83 0.84,-1.67 0.83,-0.83 0.83,0 1.67,-0.83 0.83,-0.84 8.34,0 0.83,0.84 1.67,0 0.83,0.83 0.83,0.83 1.67,0.84 0.83,0.83 0.84,1.67 0,0.83 0.83,1.67 0,0.83 0.83,1.67 0,0.83"
       style="fill:#800000;stroke:#800000"
       id="path156" />
    <path
       inkscape:connector-curvature="0"
       d="m 3093.33,3793.33 0,3.34 -0.83,0.83 0,1.67 -0.83,0.83 -0.84,0.83 -0.83,1.67 -0.83,0.83 -0.84,0.84 -0.83,0.83 -1.67,0.83 -0.83,0 -1.67,0.84 -5.83,0 -1.67,-0.84 -0.83,0 -1.67,-0.83 -0.83,-0.83 -0.83,-0.84 -0.84,-0.83 -0.83,-0.83 -0.83,-0.84 -0.84,-1.66 -0.83,-0.84 0,-2.5 -0.83,-1.66 0,-0.84 0.83,-1.66 0,-2.5 0.83,-1.67 0.84,-0.83 0.83,-0.84 0.83,-0.83 0.84,-1.67 0.83,-0.83 0.83,0 1.67,-0.83 0.83,-0.84 8.34,0 0.83,0.84 1.67,0 0.83,0.83 0.83,0.83 1.67,0.84 0.83,0.83 0.84,1.67 0,0.83 0.83,1.67 0,0.83 0.83,1.67 0,1.66"
       style="fill:#800000;stroke:#800000;stroke-width:5"
       id="path158" />
  </g>
  <g
     id="g176"
     transform="matrix(0.1375,0,0,-0.1375,-125,595)"
     style="fill:#800000;stroke:#800000">
    <path
       inkscape:connector-curvature="0"
       d="m 4152.5,3793.33 -0.83,1.67 0,2.5 -0.84,1.67 0,0.83 -0.83,0.83 -0.83,1.67 -0.84,0.83 -1.66,0.84 -0.84,0.83 -0.83,0.83 -1.67,0 -0.83,0.84 -6.67,0 -1.66,-0.84 -0.84,0 -0.83,-0.83 -1.67,-0.83 -0.83,-0.84 -0.83,-0.83 -0.84,-0.83 -0.83,-0.84 -0.83,-1.66 0,-0.84 -0.84,-1.66 0,-6.67 0.84,-0.83 0,-1.67 0.83,-0.83 0.83,-0.84 0.84,-0.83 0.83,-1.67 0.83,-0.83 1.67,0 0.83,-0.83 1.67,-0.84 7.5,0 1.67,0.84 0.83,0 0.83,0.83 1.67,0.83 0.83,0.84 0.84,0.83 0.83,1.67 0.83,0.83 0,1.67 0.84,0.83 0,2.5"
       style="fill:#800000;stroke:#800000"
       id="path182" />
    <path
       inkscape:connector-curvature="0"
       d="m 4152.5,3793.33 -0.83,1.67 0,2.5 -0.84,1.67 0,0.83 -0.83,0.83 -0.83,1.67 -0.84,0.83 -1.66,0.84 -0.84,0.83 -0.83,0.83 -1.67,0 -0.83,0.84 -6.67,0 -1.66,-0.84 -0.84,0 -0.83,-0.83 -1.67,-0.83 -0.83,-0.84 -0.83,-0.83 -0.84,-0.83 -0.83,-0.84 -0.83,-1.66 0,-0.84 -0.84,-1.66 0,-6.67 0.84,-0.83 0,-1.67 0.83,-0.83 0.83,-0.84 0.84,-0.83 0.83,-1.67 0.83,-0.83 1.67,0 0.83,-0.83 1.67,-0.84 7.5,0 1.67,0.84 0.83,0 0.83,0.83 1.67,0.83 0.83,0.84 0.84,0.83 0.83,1.67 0.83,0.83 0,1.67 0.84,0.83 0,2.5 0.83,0.83"
       style="fill:#800000;stroke:#800000;stroke-width:5"
       id="path184" />
  </g>
  <g
     id="g202"
     transform="matrix(0.1375,0,0,-0.1375,-125,595)"
     style="fill:#800000;stroke:#800000">
    <path
       inkscape:connector-curvature="0"
       d="m 4515.83,3793.33 0,3.34 -0.83,0.83 0,1.67 -0.83,0.83 -0.84,0.83 -0.83,1.67 -0.83,0.83 -0.84,0.84 -0.83,0.83 -0.83,0.83 -1.67,0 -0.83,0.84 -6.67,0 -1.67,-0.84 -0.83,0 -1.67,-0.83 -0.83,-0.83 -0.83,-0.84 -0.84,-0.83 -0.83,-0.83 -0.83,-0.84 -0.84,-1.66 -0.83,-0.84 0,-2.5 -0.83,-1.66 0,-0.84 0.83,-1.66 0,-2.5 0.83,-1.67 0.84,-0.83 0.83,-0.84 0.83,-0.83 0.84,-1.67 0.83,-0.83 1.67,0 0.83,-0.83 0.83,-0.84 8.34,0 0.83,0.84 1.67,0 0.83,0.83 0.83,0.83 1.67,0.84 0.83,0.83 0.84,1.67 0,0.83 0.83,1.67 0.83,0.83 0,2.5"
       style="fill:#800000;stroke:#800000"
       id="path208" />
    <path
       inkscape:connector-curvature="0"
       d="m 4515.83,3793.33 0,3.34 -0.83,0.83 0,1.67 -0.83,0.83 -0.84,0.83 -0.83,1.67 -0.83,0.83 -0.84,0.84 -0.83,0.83 -0.83,0.83 -1.67,0 -0.83,0.84 -6.67,0 -1.67,-0.84 -0.83,0 -1.67,-0.83 -0.83,-0.83 -0.83,-0.84 -0.84,-0.83 -0.83,-0.83 -0.83,-0.84 -0.84,-1.66 -0.83,-0.84 0,-2.5 -0.83,-1.66 0,-0.84 0.83,-1.66 0,-2.5 0.83,-1.67 0.84,-0.83 0.83,-0.84 0.83,-0.83 0.84,-1.67 0.83,-0.83 1.67,0 0.83,-0.83 0.83,-0.84 8.34,0 0.83,0.84 1.67,0 0.83,0.83 0.83,0.83 1.67,0.84 0.83,0.83 0.84,1.67 0,0.83 0.83,1.67 0.83,0.83 0,3.33"
       style="fill:#800000;stroke:#800000;stroke-width:5"
       id="path210" />
  </g>
</svg>
