<?xml version="1.0" encoding="UTF-8" standalone="no"?>
<!-- Created with Inkscape (http://www.inkscape.org/) -->

<svg
   xmlns:dc="http://purl.org/dc/elements/1.1/"
   xmlns:cc="http://creativecommons.org/ns#"
   xmlns:rdf="http://www.w3.org/1999/02/22-rdf-syntax-ns#"
   xmlns:svg="http://www.w3.org/2000/svg"
   xmlns="http://www.w3.org/2000/svg"
   xmlns:sodipodi="http://sodipodi.sourceforge.net/DTD/sodipodi-0.dtd"
   xmlns:inkscape="http://www.inkscape.org/namespaces/inkscape"
   width="744.09448819"
   height="1052.3622047"
   id="svg2"
   version="1.1"
   inkscape:version="0.92.3 (2405546, 2018-03-11)"
   sodipodi:docname="semio2.svg">
  <defs
     id="defs4" />
  <sodipodi:namedview
     id="base"
     pagecolor="#ffffff"
     bordercolor="#666666"
     borderopacity="1.0"
     inkscape:pageopacity="0.0"
     inkscape:pageshadow="2"
     inkscape:zoom="1.4"
     inkscape:cx="332.34075"
     inkscape:cy="829.24651"
     inkscape:document-units="px"
     inkscape:current-layer="layer1"
     showgrid="true"
     inkscape:snap-bbox="true"
     inkscape:snap-global="true"
     inkscape:window-width="1366"
     inkscape:window-height="719"
     inkscape:window-x="0"
     inkscape:window-y="25"
     inkscape:window-maximized="1">
    <inkscape:grid
       type="xygrid"
       id="grid3116"
       empspacing="5"
       visible="true"
       enabled="true"
       snapvisiblegridlinesonly="true"
       dotted="true" />
  </sodipodi:namedview>
  <metadata
     id="metadata7">
    <rdf:RDF>
      <cc:Work
         rdf:about="">
        <dc:format>image/svg+xml</dc:format>
        <dc:type
           rdf:resource="http://purl.org/dc/dcmitype/StillImage" />
        <dc:title />
      </cc:Work>
    </rdf:RDF>
  </metadata>
  <g
     inkscape:label="Layer 1"
     inkscape:groupmode="layer"
     id="layer1">
    <flowRoot
       xml:space="preserve"
       id="flowRoot2985"
       style="font-style:normal;font-variant:normal;font-weight:normal;font-stretch:normal;line-height:0.01%;font-family:Ubuntu;-inkscape-font-specification:Ubuntu;text-align:start;letter-spacing:0px;word-spacing:0px;writing-mode:lr-tb;text-anchor:start;fill:#4d4d4d;fill-opacity:1;stroke:none;"
       transform="translate(17.95225,6.9227305)"><flowRegion
         id="flowRegion2987"
         style="fill:#4d4d4d;"><rect
           id="rect2989"
           width="200.71428"
           height="85.714287"
           x="42.857143"
           y="213.07646"
           style="fill:#4d4d4d;" /></flowRegion><flowPara
         id="flowPara2991"
         style="font-size:14px;line-height:1.25;fill:#4d4d4d;">Ponctuelle</flowPara></flowRoot>    <flowRoot
       transform="translate(17.95225,66.93673)"
       xml:space="preserve"
       id="flowRoot2985-4"
       style="font-style:normal;font-variant:normal;font-weight:normal;font-stretch:normal;line-height:0.01%;font-family:Ubuntu;-inkscape-font-specification:Ubuntu;text-align:start;letter-spacing:0px;word-spacing:0px;writing-mode:lr-tb;text-anchor:start;fill:#4d4d4d;fill-opacity:1;stroke:none;"><flowRegion
         id="flowRegion2987-4"
         style="fill:#4d4d4d;"><rect
           id="rect2989-8"
           width="200.71428"
           height="85.714287"
           x="42.857143"
           y="213.07646"
           style="fill:#4d4d4d;" /></flowRegion><flowPara
         id="flowPara2991-9"
         style="font-size:14px;line-height:1.25;fill:#4d4d4d;">Linéaire</flowPara></flowRoot>    <flowRoot
       transform="translate(18.69425,126.92273)"
       xml:space="preserve"
       id="flowRoot2985-4-5"
       style="font-style:normal;font-variant:normal;font-weight:normal;font-stretch:normal;line-height:0.01%;font-family:Ubuntu;-inkscape-font-specification:Ubuntu;text-align:start;letter-spacing:0px;word-spacing:0px;writing-mode:lr-tb;text-anchor:start;fill:#4d4d4d;fill-opacity:1;stroke:none;"><flowRegion
         id="flowRegion2987-4-9"
         style="fill:#4d4d4d;"><rect
           id="rect2989-8-7"
           width="200.71428"
           height="85.714287"
           x="42.857143"
           y="213.07646"
           style="fill:#4d4d4d;" /></flowRegion><flowPara
         id="flowPara2991-9-6"
         style="font-size:14px;line-height:1.25;fill:#4d4d4d;">Zonale</flowPara></flowRoot>    <flowRoot
       transform="translate(84.796875,-29.89527)"
       xml:space="preserve"
       id="flowRoot2985-6"
       style="font-style:normal;font-variant:normal;font-weight:normal;font-stretch:normal;line-height:0.01%;font-family:Ubuntu;-inkscape-font-specification:Ubuntu;text-align:center;letter-spacing:0px;word-spacing:0px;writing-mode:lr-tb;text-anchor:middle;fill:#4d4d4d;fill-opacity:1;stroke:none;"><flowRegion
         id="flowRegion2987-2"
         style="fill:#4d4d4d;"><rect
           id="rect2989-9"
           width="200.71428"
           height="85.714287"
           x="42.857143"
           y="213.07646"
           style="text-align:center;text-anchor:middle;fill:#4d4d4d;" /></flowRegion><flowPara
         id="flowPara2991-5"
         style="font-size:14px;line-height:1.25;text-align:center;text-anchor:middle;fill:#4d4d4d;">Qualitative nominale</flowPara></flowRoot>    <rect
       style="color:#000000;fill:#ffffff;fill-opacity:1;fill-rule:evenodd;stroke:#333333;stroke-width:1;stroke-linecap:square;stroke-linejoin:miter;stroke-miterlimit:4;stroke-opacity:1;stroke-dasharray:none;stroke-dashoffset:0;marker:none;visibility:visible;display:inline;overflow:visible;enable-background:accumulate"
       id="rect3114"
       width="168"
       height="58"
       x="141"
       y="203.36218"
       ry="0" />
    <rect
       style="color:#000000;fill:#ffffff;fill-opacity:1;fill-rule:evenodd;stroke:#333333;stroke-width:1;stroke-linecap:square;stroke-linejoin:miter;stroke-miterlimit:4;stroke-opacity:1;stroke-dasharray:none;stroke-dashoffset:0;marker:none;visibility:visible;display:inline;overflow:visible;enable-background:accumulate"
       id="rect3114-7"
       width="168"
       height="58"
       x="311"
       y="203.36218"
       ry="0" />
    <rect
       style="color:#000000;fill:#ffffff;fill-opacity:1;fill-rule:evenodd;stroke:#333333;stroke-width:1;stroke-linecap:square;stroke-linejoin:miter;stroke-miterlimit:4;stroke-opacity:1;stroke-dasharray:none;stroke-dashoffset:0;marker:none;visibility:visible;display:inline;overflow:visible;enable-background:accumulate"
       id="rect3114-9"
       width="168"
       height="58"
       x="141"
       y="263.36218"
       ry="0" />
    <rect
       style="color:#000000;fill:#ffffff;fill-opacity:1;fill-rule:evenodd;stroke:#333333;stroke-width:1;stroke-linecap:square;stroke-linejoin:miter;stroke-miterlimit:4;stroke-opacity:1;stroke-dasharray:none;stroke-dashoffset:0;marker:none;visibility:visible;display:inline;overflow:visible;enable-background:accumulate"
       id="rect3114-7-0"
       width="168"
       height="58"
       x="311"
       y="263.36218"
       ry="0" />
    <rect
       style="color:#000000;fill:#ffffff;fill-opacity:1;fill-rule:evenodd;stroke:#333333;stroke-width:1;stroke-linecap:square;stroke-linejoin:miter;stroke-miterlimit:4;stroke-opacity:1;stroke-dasharray:none;stroke-dashoffset:0;marker:none;visibility:visible;display:inline;overflow:visible;enable-background:accumulate"
       id="rect3114-1"
       width="168"
       height="58"
       x="141"
       y="323.36218"
       ry="0" />
    <rect
       style="color:#000000;fill:#ffffff;fill-opacity:1;fill-rule:evenodd;stroke:#333333;stroke-width:1;stroke-linecap:square;stroke-linejoin:miter;stroke-miterlimit:4;stroke-opacity:1;stroke-dasharray:none;stroke-dashoffset:0;marker:none;visibility:visible;display:inline;overflow:visible;enable-background:accumulate"
       id="rect3114-7-2"
       width="168"
       height="58"
       x="311"
       y="323.36218"
       ry="0" />
    <rect
       style="color:#000000;fill:#ffffff;fill-opacity:1;fill-rule:evenodd;stroke:#333333;stroke-width:1;stroke-linecap:square;stroke-linejoin:miter;stroke-miterlimit:4;stroke-opacity:1;stroke-dasharray:none;stroke-dashoffset:0;marker:none;visibility:visible;display:inline;overflow:visible;enable-background:accumulate"
       id="rect3114-7-9"
       width="168"
       height="58"
       x="481"
       y="203.36218"
       ry="0" />
    <rect
       style="color:#000000;fill:#ffffff;fill-opacity:1;fill-rule:evenodd;stroke:#333333;stroke-width:1;stroke-linecap:square;stroke-linejoin:miter;stroke-miterlimit:4;stroke-opacity:1;stroke-dasharray:none;stroke-dashoffset:0;marker:none;visibility:visible;display:inline;overflow:visible;enable-background:accumulate"
       id="rect3114-7-0-3"
       width="168"
       height="58"
       x="481"
       y="263.36218"
       ry="0" />
    <rect
       style="color:#000000;fill:#ffffff;fill-opacity:1;fill-rule:evenodd;stroke:#333333;stroke-width:1;stroke-linecap:square;stroke-linejoin:miter;stroke-miterlimit:4;stroke-opacity:1;stroke-dasharray:none;stroke-dashoffset:0;marker:none;visibility:visible;display:inline;overflow:visible;enable-background:accumulate"
       id="rect3114-7-2-7"
       width="168"
       height="58"
       x="481"
       y="323.36218"
       ry="0" />
    <g
       id="g4097">
      <path
         transform="matrix(1.45,0,0,1.45,217.25,-387.31298)"
         d="m 245,427.36218 a 10,10 0 1 1 -20,0 10,10 0 1 1 20,0 z"
         sodipodi:ry="10"
         sodipodi:rx="10"
         sodipodi:cy="427.36218"
         sodipodi:cx="235"
         id="path3992"
         style="color:#000000;fill:#808080;fill-opacity:1;fill-rule:evenodd;stroke:#000000;stroke-width:0.68965518;stroke-linecap:square;stroke-linejoin:miter;stroke-miterlimit:4;stroke-opacity:1;stroke-dasharray:none;stroke-dashoffset:0;marker:none;visibility:visible;display:inline;overflow:visible;enable-background:accumulate"
         sodipodi:type="arc" />
      <path
         d="m 245,427.36218 a 10,10 0 1 1 -20,0 10,10 0 1 1 20,0 z"
         sodipodi:ry="10"
         sodipodi:rx="10"
         sodipodi:cy="427.36218"
         sodipodi:cx="235"
         id="path3992-5"
         style="color:#000000;fill:#808080;fill-opacity:1;fill-rule:evenodd;stroke:#000000;stroke-width:1;stroke-linecap:square;stroke-linejoin:miter;stroke-miterlimit:4;stroke-opacity:1;stroke-dasharray:none;stroke-dashoffset:0;marker:none;visibility:visible;display:inline;overflow:visible;enable-background:accumulate"
         sodipodi:type="arc"
         transform="translate(338.5,-190.5)" />
      <path
         transform="matrix(0.5,0,0,0.5,467,28.18109)"
         d="m 245,427.36218 a 10,10 0 1 1 -20,0 10,10 0 1 1 20,0 z"
         sodipodi:ry="10"
         sodipodi:rx="10"
         sodipodi:cy="427.36218"
         sodipodi:cx="235"
         id="path3992-3"
         style="color:#000000;fill:#808080;fill-opacity:1;fill-rule:evenodd;stroke:#000000;stroke-width:2;stroke-linecap:square;stroke-linejoin:miter;stroke-miterlimit:4;stroke-opacity:1;stroke-dasharray:none;stroke-dashoffset:0;marker:none;visibility:visible;display:inline;overflow:visible;enable-background:accumulate"
         sodipodi:type="arc" />
      <path
         d="m 245,427.36218 a 10,10 0 1 1 -20,0 10,10 0 1 1 20,0 z"
         sodipodi:ry="10"
         sodipodi:rx="10"
         sodipodi:cy="427.36218"
         sodipodi:cx="235"
         id="path3992-5-5"
         style="color:#000000;fill:#808080;fill-opacity:1;fill-rule:evenodd;stroke:#000000;stroke-width:4;stroke-linecap:square;stroke-linejoin:miter;stroke-miterlimit:4;stroke-opacity:1;stroke-dasharray:none;stroke-dashoffset:0;marker:none;visibility:visible;display:inline;overflow:visible;enable-background:accumulate"
         sodipodi:type="arc"
         transform="matrix(0.25,0,0,0.25,531.50254,137.52164)" />
    </g>
    <path
       sodipodi:type="arc"
       style="color:#000000;fill:#550000;fill-opacity:1;fill-rule:evenodd;stroke:#550000;stroke-width:1;stroke-linecap:square;stroke-linejoin:miter;stroke-miterlimit:4;stroke-opacity:1;stroke-dasharray:none;stroke-dashoffset:0;marker:none;visibility:visible;display:inline;overflow:visible;enable-background:accumulate"
       id="path3992-2"
       sodipodi:cx="235"
       sodipodi:cy="427.36218"
       sodipodi:rx="10"
       sodipodi:ry="10"
       d="m 245,427.36218 a 10,10 0 1 1 -20,0 10,10 0 1 1 20,0 z"
       transform="translate(-46.5,-193.5)" />
    <path
       transform="translate(-21.5,-193.5)"
       sodipodi:type="arc"
       style="color:#000000;fill:#445500;fill-opacity:1;fill-rule:evenodd;stroke:#445500;stroke-width:1;stroke-linecap:square;stroke-linejoin:miter;stroke-miterlimit:4;stroke-opacity:1;stroke-dasharray:none;stroke-dashoffset:0;marker:none;visibility:visible;display:inline;overflow:visible;enable-background:accumulate"
       id="path3992-5-3"
       sodipodi:cx="235"
       sodipodi:cy="427.36218"
       sodipodi:rx="10"
       sodipodi:ry="10"
       d="m 245,427.36218 a 10,10 0 1 1 -20,0 10,10 0 1 1 20,0 z" />
    <path
       sodipodi:type="arc"
       style="color:#000000;fill:#0088aa;fill-opacity:1;fill-rule:evenodd;stroke:#0088aa;stroke-width:1;stroke-linecap:square;stroke-linejoin:miter;stroke-miterlimit:4;stroke-opacity:1;stroke-dasharray:none;stroke-dashoffset:0;marker:none;visibility:visible;display:inline;overflow:visible;enable-background:accumulate"
       id="path3992-3-3"
       sodipodi:cx="235"
       sodipodi:cy="427.36218"
       sodipodi:rx="10"
       sodipodi:ry="10"
       d="m 245,427.36218 a 10,10 0 1 1 -20,0 10,10 0 1 1 20,0 z"
       transform="translate(4.5,-193.5)" />
    <path
       transform="translate(29.5,-193.5)"
       sodipodi:type="arc"
       style="color:#000000;fill:#ff7f2a;fill-opacity:1;fill-rule:evenodd;stroke:#ff7f2a;stroke-width:1;stroke-linecap:square;stroke-linejoin:miter;stroke-miterlimit:4;stroke-opacity:1;stroke-dasharray:none;stroke-dashoffset:0;marker:none;visibility:visible;display:inline;overflow:visible;enable-background:accumulate"
       id="path3992-5-5-8"
       sodipodi:cx="235"
       sodipodi:cy="427.36218"
       sodipodi:rx="10"
       sodipodi:ry="10"
       d="m 245,427.36218 a 10,10 0 1 1 -20,0 10,10 0 1 1 20,0 z" />
    <path
       sodipodi:type="arc"
       style="color:#000000;fill:#800000;fill-opacity:1;fill-rule:evenodd;stroke:#800000;stroke-width:1;stroke-linecap:square;stroke-linejoin:miter;stroke-miterlimit:4;stroke-opacity:1;stroke-dasharray:none;stroke-dashoffset:0;marker:none;visibility:visible;display:inline;overflow:visible;enable-background:accumulate"
       id="path3992-2-1"
       sodipodi:cx="235"
       sodipodi:cy="427.36218"
       sodipodi:rx="10"
       sodipodi:ry="10"
       d="m 245,427.36218 a 10,10 0 1 1 -20,0 10,10 0 1 1 20,0 z"
       transform="translate(123.5,-193.5)" />
    <path
       transform="translate(148.5,-193.5)"
       sodipodi:type="arc"
       style="color:#000000;fill:#d40000;fill-opacity:1;fill-rule:evenodd;stroke:#d40000;stroke-width:1;stroke-linecap:square;stroke-linejoin:miter;stroke-miterlimit:4;stroke-opacity:1;stroke-dasharray:none;stroke-dashoffset:0;marker:none;visibility:visible;display:inline;overflow:visible;enable-background:accumulate"
       id="path3992-5-3-5"
       sodipodi:cx="235"
       sodipodi:cy="427.36218"
       sodipodi:rx="10"
       sodipodi:ry="10"
       d="m 245,427.36218 a 10,10 0 1 1 -20,0 10,10 0 1 1 20,0 z" />
    <path
       sodipodi:type="arc"
       style="color:#000000;fill:#ff5555;fill-opacity:1;fill-rule:evenodd;stroke:#ff5555;stroke-width:1;stroke-linecap:square;stroke-linejoin:miter;stroke-miterlimit:4;stroke-opacity:1;stroke-dasharray:none;stroke-dashoffset:0;marker:none;visibility:visible;display:inline;overflow:visible;enable-background:accumulate"
       id="path3992-3-3-7"
       sodipodi:cx="235"
       sodipodi:cy="427.36218"
       sodipodi:rx="10"
       sodipodi:ry="10"
       d="m 245,427.36218 a 10,10 0 1 1 -20,0 10,10 0 1 1 20,0 z"
       transform="translate(174.5,-193.5)" />
    <path
       transform="translate(199.5,-193.5)"
       sodipodi:type="arc"
       style="color:#000000;fill:#ffaaaa;fill-opacity:1;fill-rule:evenodd;stroke:#ffaaaa;stroke-width:1;stroke-linecap:square;stroke-linejoin:miter;stroke-miterlimit:4;stroke-opacity:1;stroke-dasharray:none;stroke-dashoffset:0;marker:none;visibility:visible;display:inline;overflow:visible;enable-background:accumulate"
       id="path3992-5-5-8-6"
       sodipodi:cx="235"
       sodipodi:cy="427.36218"
       sodipodi:rx="10"
       sodipodi:ry="10"
       d="m 245,427.36218 a 10,10 0 1 1 -20,0 10,10 0 1 1 20,0 z" />
    <path
       style="fill:none;stroke:#550000;stroke-width:3;stroke-linecap:butt;stroke-linejoin:miter;stroke-miterlimit:4;stroke-opacity:1;stroke-dasharray:none"
       d="m 179.61277,278.86218 91.77445,0"
       id="path4103"
       inkscape:connector-curvature="0" />
    <path
       style="fill:none;stroke:#445500;stroke-width:3;stroke-linecap:butt;stroke-linejoin:miter;stroke-miterlimit:4;stroke-opacity:1;stroke-dasharray:none"
       d="m 179.5,287.86218 91.77445,0"
       id="path4103-0"
       inkscape:connector-curvature="0" />
    <path
       style="fill:none;stroke:#0088aa;stroke-width:3;stroke-linecap:butt;stroke-linejoin:miter;stroke-miterlimit:4;stroke-opacity:1;stroke-dasharray:none"
       d="m 179.5,296.86218 91.77445,0"
       id="path4103-7"
       inkscape:connector-curvature="0" />
    <path
       style="fill:none;stroke:#ff7f2a;stroke-width:3;stroke-linecap:butt;stroke-linejoin:miter;stroke-miterlimit:4;stroke-opacity:1;stroke-dasharray:none"
       d="m 179.5,305.86218 91.77445,0"
       id="path4103-4"
       inkscape:connector-curvature="0" />
    <path
       style="fill:none;stroke:#800000;stroke-width:3;stroke-linecap:butt;stroke-linejoin:miter;stroke-miterlimit:4;stroke-opacity:1;stroke-dasharray:none"
       d="m 351.5,278.86218 91.77445,0"
       id="path4103-6"
       inkscape:connector-curvature="0" />
    <path
       style="fill:none;stroke:#d40000;stroke-width:3;stroke-linecap:butt;stroke-linejoin:miter;stroke-miterlimit:4;stroke-opacity:1;stroke-dasharray:none"
       d="m 351.38723,287.86218 91.77445,0"
       id="path4103-0-1"
       inkscape:connector-curvature="0" />
    <path
       style="fill:none;stroke:#ff5555;stroke-width:3;stroke-linecap:butt;stroke-linejoin:miter;stroke-miterlimit:4;stroke-opacity:1;stroke-dasharray:none"
       d="m 351.38723,296.86218 91.77445,0"
       id="path4103-7-4"
       inkscape:connector-curvature="0" />
    <path
       style="fill:none;stroke:#ffaaaa;stroke-width:3;stroke-linecap:butt;stroke-linejoin:miter;stroke-miterlimit:4;stroke-opacity:1;stroke-dasharray:none"
       d="m 351.38723,305.86218 91.77445,0"
       id="path4103-4-6"
       inkscape:connector-curvature="0" />
    <path
       style="fill:none;stroke:#4d4d4d;stroke-width:10;stroke-linecap:butt;stroke-linejoin:miter;stroke-miterlimit:4;stroke-opacity:1;stroke-dasharray:none"
       d="m 518.22555,277.36218 91.77445,0"
       id="path4103-6-6"
       inkscape:connector-curvature="0" />
    <path
       style="fill:none;stroke:#4d4d4d;stroke-width:8;stroke-linecap:butt;stroke-linejoin:miter;stroke-miterlimit:4;stroke-opacity:1;stroke-dasharray:none"
       d="m 518.61278,291.86218 91.77445,0"
       id="path4103-0-1-3"
       inkscape:connector-curvature="0" />
    <path
       style="fill:none;stroke:#4d4d4d;stroke-width:4;stroke-linecap:butt;stroke-linejoin:miter;stroke-miterlimit:4;stroke-opacity:1;stroke-dasharray:none"
       d="m 518.61278,302.86218 91.77445,0"
       id="path4103-7-4-7"
       inkscape:connector-curvature="0" />
    <path
       style="fill:none;stroke:#4d4d4d;stroke-width:2;stroke-linecap:butt;stroke-linejoin:miter;stroke-miterlimit:4;stroke-opacity:1;stroke-dasharray:none"
       d="m 518.61278,309.86218 91.77445,0"
       id="path4103-4-6-6"
       inkscape:connector-curvature="0" />
    <g
       id="g4295"
       transform="matrix(0.89242002,0,0,0.78804893,-31.890551,16.543465)">
      <path
         sodipodi:nodetypes="aaaaaaaaa"
         inkscape:connector-curvature="0"
         id="path4228"
         d="m 249.0026,418.99654 c 1.63166,-5.49705 8.05168,-8.45267 13.13199,-11.11168 6.33196,-3.31412 14.02028,-8.07573 20.70812,-5.55584 2.84021,1.07015 3.72936,4.84376 5.05077,7.57614 2.61934,5.4162 6.28581,11.20073 5.55583,17.1726 -0.88994,7.28053 -5.32392,14.91974 -11.61675,18.68782 -4.48706,2.6868 -10.6127,2.39 -15.65736,1.01015 -4.32406,-1.18275 -8.46367,-3.95891 -11.11169,-7.57615 -4.15308,-5.67318 -8.06157,-13.46283 -6.06091,-20.20304 z"
         style="fill:#0088aa;stroke:#ffffff;stroke-width:1.19244611px;stroke-linecap:butt;stroke-linejoin:miter;stroke-opacity:1" />
      <path
         sodipodi:nodetypes="aaaaaaaaaaaaa"
         inkscape:connector-curvature="0"
         id="path4230"
         d="m 282.33764,414.45085 c 1.74402,-4.5727 6.74081,-7.3949 11.11167,-9.59645 7.55112,-3.80341 16.40156,-6.90115 24.74874,-5.55584 3.87674,0.62481 7.81759,2.86669 10.10153,6.06092 1.40204,1.96085 1.20433,4.68067 1.51523,7.07106 0.45652,3.50998 0.74869,7.07546 0.50507,10.60661 -0.37727,5.46836 0.38891,11.87837 -3.03046,16.16243 -3.43386,4.30222 -9.6757,7.12052 -15.15228,6.566 -4.08925,-0.41405 -7.81695,-3.65433 -10.10153,-7.07107 -1.72553,-2.58064 0.76981,-7.73031 -2.0203,-9.09137 -3.51949,-1.71687 -6.83892,6.11802 -10.6066,5.05076 -3.27995,-0.9291 -4.38049,-5.38632 -5.55584,-8.5863 -1.34638,-3.66561 -2.90683,-7.96807 -1.51523,-11.61675 z"
         style="fill:#445500;stroke:#ffffff;stroke-width:1.19244611px;stroke-linecap:butt;stroke-linejoin:miter;stroke-opacity:1" />
      <path
         sodipodi:nodetypes="aaaaaaaaacaa"
         inkscape:connector-curvature="0"
         id="path4230-6"
         d="m 280.29286,443.64859 c 1.74402,4.15364 6.74081,6.71721 11.11167,8.71701 7.55112,3.45485 16.40156,6.26872 24.74874,5.04668 3.87674,-0.56753 7.81759,-2.60396 10.10153,-5.50547 1.40204,-1.78116 1.20433,-4.25173 1.51523,-6.42307 0.45652,-3.18832 0.74869,-6.42705 0.50507,-9.63461 -0.37727,-4.96723 0.38891,-10.78981 -3.03046,-14.68128 -3.43386,-3.90796 -9.6757,-6.46799 -15.15228,-5.9643 -4.08925,0.3761 -6.46566,4.77919 -10.10153,6.42307 -3.99392,1.80577 -6.22465,-4.68639 -12.6269,3.67034 -1.99597,2.49095 -4.38049,4.89271 -5.55584,7.79942 -1.34638,3.3297 -2.90683,7.23787 -1.51523,10.55221 z"
         style="fill:#550000;stroke:#ffffff;stroke-width:1.19244611px;stroke-linecap:butt;stroke-linejoin:miter;stroke-opacity:1" />
      <path
         sodipodi:nodetypes="aaaaaaaaa"
         inkscape:connector-curvature="0"
         id="path4228-1"
         d="m 252.27381,418.79419 c 5.43383,6.0802 14.15244,-8.82116 22.15968,-10.36372 6.52047,-1.25613 13.38197,2.45597 19.88892,1.1316 1.90154,-0.38702 3.85471,-1.64707 5.22054,-2.5762 2.70737,-1.84172 6.49708,-3.8087 5.74256,-5.83938 -0.91985,-2.47567 -5.50286,-5.07331 -12.0072,-6.35461 -4.63788,-0.91363 -10.96941,-0.8127 -16.18363,-0.34349 -4.4694,0.40218 -8.294,0.29357 -11.48518,2.57619 -6.92145,4.95085 -19.00632,15.42443 -13.33569,21.76961 z"
         style="fill:#ff7f2a;stroke:#ffffff;stroke-width:1.19244599px;stroke-linecap:butt;stroke-linejoin:miter;stroke-opacity:1" />
    </g>
    <g
       id="g4301"
       transform="matrix(0.89242002,0,0,0.78804893,50.481578,21.170379)">
      <path
         sodipodi:nodetypes="aaaaaaaaa"
         inkscape:connector-curvature="0"
         id="path4228-7"
         d="m 349.99105,413.10303 c 1.63166,-5.49705 8.05168,-8.45267 13.13199,-11.11168 6.33196,-3.31412 14.02028,-8.07573 20.70812,-5.55584 2.84021,1.07015 3.72936,4.84376 5.05077,7.57614 2.61934,5.4162 6.28581,11.20073 5.55583,17.1726 -0.88994,7.28053 -5.32392,14.91974 -11.61675,18.68782 -4.48706,2.6868 -10.6127,2.39 -15.65736,1.01015 -4.32406,-1.18275 -8.46367,-3.95891 -11.11169,-7.57615 -4.15308,-5.67318 -8.06157,-13.46283 -6.06091,-20.20304 z"
         style="fill:#ff5555;stroke:#ffffff;stroke-width:1.19244611px;stroke-linecap:butt;stroke-linejoin:miter;stroke-opacity:1" />
      <path
         sodipodi:nodetypes="aaaaaaaaaaaaa"
         inkscape:connector-curvature="0"
         id="path4230-1"
         d="m 383.32609,408.55734 c 1.74402,-4.5727 6.74081,-7.3949 11.11167,-9.59645 7.55112,-3.80341 16.40156,-6.90115 24.74874,-5.55584 3.87674,0.62481 7.81759,2.86669 10.10153,6.06092 1.40204,1.96085 1.20433,4.68067 1.51523,7.07106 0.45652,3.50998 0.74869,7.07546 0.50507,10.60661 -0.37727,5.46836 0.38891,11.87837 -3.03046,16.16243 -3.43386,4.30222 -9.6757,7.12052 -15.15228,6.566 -4.08925,-0.41405 -7.81695,-3.65433 -10.10153,-7.07107 -1.72553,-2.58064 0.76981,-7.73031 -2.0203,-9.09137 -3.51949,-1.71687 -6.83892,6.11802 -10.6066,5.05076 -3.27995,-0.9291 -4.38049,-5.38632 -5.55584,-8.5863 -1.34638,-3.66561 -2.90683,-7.96807 -1.51523,-11.61675 z"
         style="fill:#ffaaaa;stroke:#ffffff;stroke-width:1.19244611px;stroke-linecap:butt;stroke-linejoin:miter;stroke-opacity:1" />
      <path
         sodipodi:nodetypes="aaaaaaaaacaa"
         inkscape:connector-curvature="0"
         id="path4230-6-9"
         d="m 381.28131,437.75508 c 1.74402,4.15364 6.74081,6.71721 11.11167,8.71701 7.55112,3.45485 16.40156,6.26872 24.74874,5.04668 3.87674,-0.56753 7.81759,-2.60396 10.10153,-5.50547 1.40204,-1.78116 1.20433,-4.25173 1.51523,-6.42307 0.45652,-3.18832 0.74869,-6.42705 0.50507,-9.63461 -0.37727,-4.96723 0.38891,-10.78981 -3.03046,-14.68128 -3.43386,-3.90796 -9.6757,-6.46799 -15.15228,-5.9643 -4.08925,0.3761 -6.46566,4.77919 -10.10153,6.42307 -3.99392,1.80577 -6.22465,-4.68639 -12.6269,3.67034 -1.99597,2.49095 -4.38049,4.89271 -5.55584,7.79942 -1.34638,3.3297 -2.90683,7.23787 -1.51523,10.55221 z"
         style="fill:#d40000;stroke:#ffffff;stroke-width:1.19244611px;stroke-linecap:butt;stroke-linejoin:miter;stroke-opacity:1" />
      <path
         sodipodi:nodetypes="aaaaaaaaa"
         inkscape:connector-curvature="0"
         id="path4228-1-5"
         d="m 353.26226,412.90068 c 5.43383,6.0802 14.15244,-8.82116 22.15968,-10.36372 6.52047,-1.25613 13.38197,2.45597 19.88892,1.1316 1.90154,-0.38702 3.85471,-1.64707 5.22054,-2.5762 2.70737,-1.84172 6.49708,-3.8087 5.74256,-5.83938 -0.91985,-2.47567 -5.50286,-5.07331 -12.0072,-6.35461 -4.63788,-0.91363 -10.96941,-0.8127 -16.18363,-0.34349 -4.4694,0.40218 -8.294,0.29357 -11.48518,2.57619 -6.92145,4.95085 -19.00632,15.42443 -13.33569,21.76961 z"
         style="fill:#800000;stroke:#ffffff;stroke-width:1.19244599px;stroke-linecap:butt;stroke-linejoin:miter;stroke-opacity:1" />
    </g>
    <flowRoot
       transform="translate(478.22524,129.14516)"
       xml:space="preserve"
       id="flowRoot2985-4-5-6"
       style="font-style:normal;font-variant:normal;font-weight:normal;font-stretch:normal;line-height:0.01%;font-family:Ubuntu;-inkscape-font-specification:Ubuntu;text-align:start;letter-spacing:0px;word-spacing:0px;writing-mode:lr-tb;text-anchor:start;fill:#4d4d4d;fill-opacity:1;stroke:none;"><flowRegion
         id="flowRegion2987-4-9-5"
         style="fill:#4d4d4d;"><rect
           id="rect2989-8-7-2"
           width="200.71428"
           height="85.714287"
           x="42.857143"
           y="213.07646"
           style="fill:#4d4d4d;" /></flowRegion><flowPara
         id="flowPara2991-9-6-1"
         style="font-style:italic;font-weight:500;font-size:14px;line-height:1.25;-inkscape-font-specification:'Ubuntu Medium Italic';fill:#4d4d4d;">anamorphose</flowPara></flowRoot>    <flowRoot
       transform="translate(251.73567,-45.085902)"
       xml:space="preserve"
       id="flowRoot2985-6-1"
       style="font-style:normal;font-variant:normal;font-weight:normal;font-stretch:normal;line-height:0.01%;font-family:Ubuntu;-inkscape-font-specification:Ubuntu;text-align:center;letter-spacing:0px;word-spacing:0px;writing-mode:lr-tb;text-anchor:middle;fill:#4d4d4d;fill-opacity:1;stroke:none;"><flowRegion
         id="flowRegion2987-2-5"
         style="fill:#4d4d4d;"><rect
           id="rect2989-9-4"
           width="200.71428"
           height="85.714287"
           x="42.857143"
           y="213.07646"
           style="text-align:center;text-anchor:middle;fill:#4d4d4d;" /></flowRegion><flowPara
         id="flowPara2991-5-7"
         style="font-size:14px;line-height:1.25;text-align:center;text-anchor:middle;fill:#4d4d4d;">Qualitative ordinale</flowPara></flowRoot>    <flowRoot
       transform="translate(421.79687,-29.89527)"
       xml:space="preserve"
       id="flowRoot2985-6-6"
       style="font-style:normal;font-variant:normal;font-weight:normal;font-stretch:normal;line-height:0.01%;font-family:Ubuntu;-inkscape-font-specification:Ubuntu;text-align:center;letter-spacing:0px;word-spacing:0px;writing-mode:lr-tb;text-anchor:middle;fill:#4d4d4d;fill-opacity:1;stroke:none;"><flowRegion
         id="flowRegion2987-2-0"
         style="fill:#4d4d4d;"><rect
           id="rect2989-9-7"
           width="200.71428"
           height="85.714287"
           x="42.857143"
           y="213.07646"
           style="text-align:center;text-anchor:middle;fill:#4d4d4d;" /></flowRegion><flowPara
         id="flowPara2991-5-3"
         style="font-size:14px;line-height:1.25;text-align:center;text-anchor:middle;fill:#4d4d4d;">Quantitative absolue</flowPara></flowRoot>    <flowRoot
       transform="translate(252.79687,-29.89527)"
       xml:space="preserve"
       id="flowRoot2985-6-6-1"
       style="font-style:normal;font-variant:normal;font-weight:normal;font-stretch:normal;line-height:0.01%;font-family:Ubuntu;-inkscape-font-specification:Ubuntu;text-align:center;letter-spacing:0px;word-spacing:0px;writing-mode:lr-tb;text-anchor:middle;fill:#4d4d4d;fill-opacity:1;stroke:none;"><flowRegion
         id="flowRegion2987-2-0-7"
         style="fill:#4d4d4d;"><rect
           id="rect2989-9-7-0"
           width="200.71428"
           height="85.714287"
           x="42.857143"
           y="213.07646"
           style="text-align:center;text-anchor:middle;fill:#4d4d4d;" /></flowRegion><flowPara
         id="flowPara2991-5-3-8"
         style="font-size:14px;line-height:1.25;text-align:center;text-anchor:middle;fill:#4d4d4d;">Quantitative relative</flowPara></flowRoot>    <flowRoot
       xml:space="preserve"
       id="flowRoot2985-9"
       style="font-style:normal;font-variant:normal;font-weight:normal;font-stretch:normal;line-height:0.01%;font-family:Ubuntu;-inkscape-font-specification:Ubuntu;text-align:start;letter-spacing:0px;word-spacing:0px;writing-mode:lr-tb;text-anchor:start;fill:#4d4d4d;fill-opacity:1;stroke:none"
       transform="translate(273.08126,-74.905645)"><flowRegion
         id="flowRegion2987-45"
         style="fill:#4d4d4d"><rect
           id="rect2989-4"
           width="200.71428"
           height="85.714287"
           x="42.857143"
           y="213.07646"
           style="fill:#4d4d4d" /></flowRegion><flowPara
         id="flowPara2991-3"
         style="font-weight:500;font-size:16px;line-height:1.25;-inkscape-font-specification:'Ubuntu Medium';fill:#4d4d4d">Nature de la variable</flowPara></flowRoot>    <flowRoot
       xml:space="preserve"
       id="flowRoot2985-9-4"
       style="font-style:normal;font-variant:normal;font-weight:normal;font-stretch:normal;line-height:0.01%;font-family:Ubuntu;-inkscape-font-specification:Ubuntu;text-align:start;letter-spacing:0px;word-spacing:0px;writing-mode:lr-tb;text-anchor:start;fill:#333333;fill-opacity:1;stroke:none"
       transform="rotate(-90,94.9381,283.67157)"><flowRegion
         id="flowRegion2987-45-8"><rect
           id="rect2989-4-0"
           width="200.71428"
           height="85.714287"
           x="42.857143"
           y="213.07646"
           style="fill:#333333" /></flowRegion><flowPara
         id="flowPara2991-3-4"
         style="font-weight:500;font-size:16px;line-height:1.25;-inkscape-font-specification:'Ubuntu Medium';fill:#333333">Implantation</flowPara></flowRoot>    <path
       style="fill:none;stroke:#4d4d4d;stroke-width:2;stroke-linecap:round;stroke-linejoin:miter;stroke-miterlimit:4;stroke-opacity:1;stroke-dasharray:none"
       d="m 145.96704,161.40764 495.47982,0"
       id="path3241"
       inkscape:connector-curvature="0" />
    <path
       style="fill:none;stroke:#333333;stroke-width:2;stroke-linecap:round;stroke-linejoin:miter;stroke-miterlimit:4;stroke-opacity:1;stroke-dasharray:none"
       d="M 49,361.43093 49,213.13601"
       id="path3241-7"
       inkscape:connector-curvature="0" />
  </g>
</svg>
